<mxfile host="app.diagrams.net" modified="2021-10-14T17:05:28.637Z" agent="5.0 (X11; Linux x86_64) AppleWebKit/537.36 (KHTML, like Gecko) Chrome/94.0.4606.81 Safari/537.36" etag="kh3x0-UfhR0hdCZnDp6z" version="15.5.2" type="github">
  <diagram id="3SE1d3Mq3gZ3uIKHCwJN" name="Architecture">
    <mxGraphModel dx="4778" dy="618" grid="1" gridSize="10" guides="1" tooltips="1" connect="1" arrows="1" fold="1" page="1" pageScale="1" pageWidth="1169" pageHeight="827" math="0" shadow="0">
      <root>
        <mxCell id="0" />
        <mxCell id="1" parent="0" />
        <mxCell id="YkUfV4aC90YQnQ93I6e_-6" value="" style="rounded=0;whiteSpace=wrap;html=1;perimeterSpacing=0;strokeWidth=2;shadow=1;glass=0;sketch=0;fontStyle=1;fillColor=#d5e8d4;strokeColor=#82b366;" vertex="1" parent="1">
          <mxGeometry x="-2968" y="507" width="420" height="190" as="geometry" />
        </mxCell>
        <mxCell id="YkUfV4aC90YQnQ93I6e_-93" style="edgeStyle=orthogonalEdgeStyle;rounded=0;orthogonalLoop=1;jettySize=auto;html=1;exitX=0;exitY=0.25;exitDx=0;exitDy=0;entryX=1;entryY=0.5;entryDx=0;entryDy=0;strokeColor=#82B366;strokeWidth=3;" edge="1" parent="1" source="YkUfV4aC90YQnQ93I6e_-1" target="YkUfV4aC90YQnQ93I6e_-13">
          <mxGeometry relative="1" as="geometry" />
        </mxCell>
        <mxCell id="YkUfV4aC90YQnQ93I6e_-94" style="edgeStyle=orthogonalEdgeStyle;rounded=0;orthogonalLoop=1;jettySize=auto;html=1;exitX=0;exitY=0.75;exitDx=0;exitDy=0;entryX=0.5;entryY=0;entryDx=0;entryDy=0;strokeColor=#82B366;strokeWidth=3;" edge="1" parent="1" source="YkUfV4aC90YQnQ93I6e_-1" target="YkUfV4aC90YQnQ93I6e_-14">
          <mxGeometry relative="1" as="geometry" />
        </mxCell>
        <mxCell id="YkUfV4aC90YQnQ93I6e_-96" style="edgeStyle=orthogonalEdgeStyle;rounded=0;orthogonalLoop=1;jettySize=auto;html=1;exitX=0.75;exitY=1;exitDx=0;exitDy=0;entryX=0.86;entryY=0.647;entryDx=0;entryDy=0;entryPerimeter=0;strokeColor=#82B366;strokeWidth=3;" edge="1" parent="1" source="YkUfV4aC90YQnQ93I6e_-1" target="YkUfV4aC90YQnQ93I6e_-6">
          <mxGeometry relative="1" as="geometry" />
        </mxCell>
        <mxCell id="YkUfV4aC90YQnQ93I6e_-97" style="edgeStyle=orthogonalEdgeStyle;rounded=0;orthogonalLoop=1;jettySize=auto;html=1;exitX=0.25;exitY=1;exitDx=0;exitDy=0;entryX=0.5;entryY=0;entryDx=0;entryDy=0;strokeColor=#82B366;strokeWidth=3;" edge="1" parent="1" source="YkUfV4aC90YQnQ93I6e_-1" target="YkUfV4aC90YQnQ93I6e_-15">
          <mxGeometry relative="1" as="geometry">
            <Array as="points">
              <mxPoint x="-2667" y="620" />
              <mxPoint x="-2757" y="620" />
            </Array>
          </mxGeometry>
        </mxCell>
        <mxCell id="YkUfV4aC90YQnQ93I6e_-1" value="SignUpController" style="rounded=0;whiteSpace=wrap;html=1;perimeterSpacing=0;strokeWidth=2;shadow=1;glass=0;sketch=0;fontStyle=0;strokeColor=#82B366;" vertex="1" parent="1">
          <mxGeometry x="-2697" y="519" width="120" height="76" as="geometry" />
        </mxCell>
        <mxCell id="YkUfV4aC90YQnQ93I6e_-2" value="Express" style="rounded=0;whiteSpace=wrap;html=1;perimeterSpacing=0;strokeWidth=2;shadow=1;glass=0;sketch=0;fontStyle=1;fillColor=#e1d5e7;strokeColor=#9673a6;" vertex="1" parent="1">
          <mxGeometry x="-3474" y="432" width="70" height="60" as="geometry" />
        </mxCell>
        <mxCell id="YkUfV4aC90YQnQ93I6e_-3" value="MongoDB" style="rounded=0;whiteSpace=wrap;html=1;perimeterSpacing=0;strokeWidth=2;shadow=1;glass=0;sketch=0;fontStyle=1;fillColor=#e1d5e7;strokeColor=#9673a6;" vertex="1" parent="1">
          <mxGeometry x="-2821" y="127" width="102" height="50" as="geometry" />
        </mxCell>
        <mxCell id="YkUfV4aC90YQnQ93I6e_-4" value="BCrypt" style="rounded=0;whiteSpace=wrap;html=1;perimeterSpacing=0;strokeWidth=2;shadow=1;glass=0;sketch=0;fontStyle=1;fillColor=#e1d5e7;strokeColor=#9673a6;" vertex="1" parent="1">
          <mxGeometry x="-3086" y="126" width="71" height="49" as="geometry" />
        </mxCell>
        <mxCell id="YkUfV4aC90YQnQ93I6e_-5" value="Validator" style="rounded=0;whiteSpace=wrap;html=1;perimeterSpacing=0;strokeWidth=2;shadow=1;glass=0;sketch=0;fontStyle=1;fillColor=#e1d5e7;strokeColor=#9673a6;" vertex="1" parent="1">
          <mxGeometry x="-3102.5" y="635" width="85" height="60" as="geometry" />
        </mxCell>
        <mxCell id="YkUfV4aC90YQnQ93I6e_-7" value="Presentation" style="text;html=1;strokeColor=none;fillColor=none;align=center;verticalAlign=middle;whiteSpace=wrap;rounded=0;shadow=1;glass=0;sketch=0;fontStyle=1" vertex="1" parent="1">
          <mxGeometry x="-2618" y="483" width="60" height="30" as="geometry" />
        </mxCell>
        <mxCell id="YkUfV4aC90YQnQ93I6e_-8" value="Controller" style="rounded=1;whiteSpace=wrap;html=1;perimeterSpacing=0;strokeWidth=2;shadow=0;glass=0;sketch=0;fontStyle=0;strokeColor=#82B366;dashed=1;" vertex="1" parent="1">
          <mxGeometry x="-2661" y="633" width="96" height="50" as="geometry" />
        </mxCell>
        <mxCell id="YkUfV4aC90YQnQ93I6e_-13" value="EmailValidator" style="rounded=1;whiteSpace=wrap;html=1;perimeterSpacing=0;strokeWidth=2;shadow=0;glass=0;sketch=0;fontStyle=0;strokeColor=#82B366;dashed=1;" vertex="1" parent="1">
          <mxGeometry x="-2912" y="516" width="120" height="43" as="geometry" />
        </mxCell>
        <mxCell id="YkUfV4aC90YQnQ93I6e_-14" value="HttpRequest" style="rounded=1;whiteSpace=wrap;html=1;perimeterSpacing=0;strokeWidth=2;shadow=0;glass=0;sketch=0;fontStyle=0;strokeColor=#82B366;dashed=1;" vertex="1" parent="1">
          <mxGeometry x="-2940" y="647" width="100" height="34" as="geometry" />
        </mxCell>
        <mxCell id="YkUfV4aC90YQnQ93I6e_-15" value="HttpResponse" style="rounded=1;whiteSpace=wrap;html=1;perimeterSpacing=0;strokeWidth=2;shadow=0;glass=0;sketch=0;fontStyle=0;strokeColor=#82B366;dashed=1;" vertex="1" parent="1">
          <mxGeometry x="-2808" y="647" width="103" height="36" as="geometry" />
        </mxCell>
        <mxCell id="YkUfV4aC90YQnQ93I6e_-23" value="" style="rounded=0;whiteSpace=wrap;html=1;perimeterSpacing=0;strokeWidth=2;shadow=1;glass=0;sketch=0;fontStyle=1;fillColor=#dae8fc;strokeColor=#6c8ebf;" vertex="1" parent="1">
          <mxGeometry x="-3140" y="507" width="159" height="93" as="geometry" />
        </mxCell>
        <mxCell id="YkUfV4aC90YQnQ93I6e_-26" style="edgeStyle=orthogonalEdgeStyle;rounded=0;orthogonalLoop=1;jettySize=auto;html=1;exitX=1;exitY=0.5;exitDx=0;exitDy=0;entryX=0;entryY=0.5;entryDx=0;entryDy=0;strokeColor=#6C8EBF;strokeWidth=3;" edge="1" parent="1" source="YkUfV4aC90YQnQ93I6e_-24" target="YkUfV4aC90YQnQ93I6e_-13">
          <mxGeometry relative="1" as="geometry" />
        </mxCell>
        <mxCell id="YkUfV4aC90YQnQ93I6e_-28" style="edgeStyle=orthogonalEdgeStyle;rounded=0;orthogonalLoop=1;jettySize=auto;html=1;exitX=0.5;exitY=1;exitDx=0;exitDy=0;entryX=0.5;entryY=0;entryDx=0;entryDy=0;strokeColor=#6C8EBF;strokeWidth=3;" edge="1" parent="1" source="YkUfV4aC90YQnQ93I6e_-24" target="YkUfV4aC90YQnQ93I6e_-5">
          <mxGeometry relative="1" as="geometry" />
        </mxCell>
        <mxCell id="YkUfV4aC90YQnQ93I6e_-24" value="EmailValidatorAdapter" style="rounded=0;whiteSpace=wrap;html=1;perimeterSpacing=0;strokeWidth=2;shadow=1;glass=0;sketch=0;fontStyle=0;strokeColor=#6c8ebf;fillColor=#FFFFFF;" vertex="1" parent="1">
          <mxGeometry x="-3125" y="523" width="129" height="60" as="geometry" />
        </mxCell>
        <mxCell id="YkUfV4aC90YQnQ93I6e_-25" value="Utils" style="text;html=1;strokeColor=none;fillColor=none;align=center;verticalAlign=middle;whiteSpace=wrap;rounded=0;shadow=1;glass=0;sketch=0;fontStyle=1" vertex="1" parent="1">
          <mxGeometry x="-3028.5" y="484" width="60" height="30" as="geometry" />
        </mxCell>
        <mxCell id="YkUfV4aC90YQnQ93I6e_-41" style="edgeStyle=orthogonalEdgeStyle;rounded=0;orthogonalLoop=1;jettySize=auto;html=1;exitX=1;exitY=0.25;exitDx=0;exitDy=0;entryX=0;entryY=0.5;entryDx=0;entryDy=0;strokeColor=#B85450;strokeWidth=3;" edge="1" parent="1" source="YkUfV4aC90YQnQ93I6e_-29" target="YkUfV4aC90YQnQ93I6e_-39">
          <mxGeometry relative="1" as="geometry" />
        </mxCell>
        <mxCell id="YkUfV4aC90YQnQ93I6e_-46" style="edgeStyle=orthogonalEdgeStyle;rounded=0;orthogonalLoop=1;jettySize=auto;html=1;exitX=0.5;exitY=0;exitDx=0;exitDy=0;entryX=0;entryY=0.5;entryDx=0;entryDy=0;strokeColor=#B85450;strokeWidth=3;" edge="1" parent="1" source="YkUfV4aC90YQnQ93I6e_-29" target="YkUfV4aC90YQnQ93I6e_-42">
          <mxGeometry relative="1" as="geometry" />
        </mxCell>
        <mxCell id="YkUfV4aC90YQnQ93I6e_-82" style="edgeStyle=orthogonalEdgeStyle;rounded=0;orthogonalLoop=1;jettySize=auto;html=1;exitX=1;exitY=0.5;exitDx=0;exitDy=0;entryX=0;entryY=0.5;entryDx=0;entryDy=0;strokeColor=#B85450;strokeWidth=3;" edge="1" parent="1" source="YkUfV4aC90YQnQ93I6e_-29" target="YkUfV4aC90YQnQ93I6e_-23">
          <mxGeometry relative="1" as="geometry" />
        </mxCell>
        <mxCell id="YkUfV4aC90YQnQ93I6e_-90" style="edgeStyle=orthogonalEdgeStyle;rounded=0;orthogonalLoop=1;jettySize=auto;html=1;exitX=0.5;exitY=1;exitDx=0;exitDy=0;entryX=0.5;entryY=1;entryDx=0;entryDy=0;strokeColor=#B85450;strokeWidth=3;" edge="1" parent="1" source="YkUfV4aC90YQnQ93I6e_-29" target="YkUfV4aC90YQnQ93I6e_-6">
          <mxGeometry relative="1" as="geometry" />
        </mxCell>
        <mxCell id="YkUfV4aC90YQnQ93I6e_-29" value="" style="rounded=0;whiteSpace=wrap;html=1;perimeterSpacing=0;strokeWidth=2;shadow=1;glass=0;sketch=0;fontStyle=1;fillColor=#f8cecc;strokeColor=#b85450;" vertex="1" parent="1">
          <mxGeometry x="-3381" y="300" width="180" height="410" as="geometry" />
        </mxCell>
        <mxCell id="YkUfV4aC90YQnQ93I6e_-30" value="SignUpComposer" style="rounded=0;whiteSpace=wrap;html=1;perimeterSpacing=0;strokeWidth=2;shadow=1;glass=0;sketch=0;fontStyle=0;strokeColor=#B85450;fillColor=#FFFFFF;" vertex="1" parent="1">
          <mxGeometry x="-3370.75" y="321" width="157.5" height="60" as="geometry" />
        </mxCell>
        <mxCell id="YkUfV4aC90YQnQ93I6e_-36" style="edgeStyle=orthogonalEdgeStyle;rounded=0;orthogonalLoop=1;jettySize=auto;html=1;exitX=0;exitY=0.5;exitDx=0;exitDy=0;entryX=1;entryY=0.5;entryDx=0;entryDy=0;strokeColor=#B85450;strokeWidth=3;" edge="1" parent="1" source="YkUfV4aC90YQnQ93I6e_-31" target="YkUfV4aC90YQnQ93I6e_-2">
          <mxGeometry relative="1" as="geometry" />
        </mxCell>
        <mxCell id="YkUfV4aC90YQnQ93I6e_-31" value="ExpressRouteAdapter" style="rounded=0;whiteSpace=wrap;html=1;perimeterSpacing=0;strokeWidth=2;shadow=1;glass=0;sketch=0;fontStyle=0;strokeColor=#B85450;fillColor=#FFFFFF;" vertex="1" parent="1">
          <mxGeometry x="-3372" y="431" width="157.5" height="60" as="geometry" />
        </mxCell>
        <mxCell id="YkUfV4aC90YQnQ93I6e_-35" style="edgeStyle=orthogonalEdgeStyle;rounded=0;orthogonalLoop=1;jettySize=auto;html=1;exitX=0.5;exitY=0;exitDx=0;exitDy=0;entryX=0.5;entryY=1;entryDx=0;entryDy=0;strokeColor=#B85450;strokeWidth=3;" edge="1" parent="1" source="YkUfV4aC90YQnQ93I6e_-32" target="YkUfV4aC90YQnQ93I6e_-31">
          <mxGeometry relative="1" as="geometry" />
        </mxCell>
        <mxCell id="YkUfV4aC90YQnQ93I6e_-32" value="SignUpRouter" style="rounded=0;whiteSpace=wrap;html=1;perimeterSpacing=0;strokeWidth=2;shadow=1;glass=0;sketch=0;fontStyle=0;strokeColor=#B85450;fillColor=#FFFFFF;" vertex="1" parent="1">
          <mxGeometry x="-3372" y="526" width="157.5" height="60" as="geometry" />
        </mxCell>
        <mxCell id="YkUfV4aC90YQnQ93I6e_-34" style="edgeStyle=orthogonalEdgeStyle;rounded=0;orthogonalLoop=1;jettySize=auto;html=1;exitX=0.5;exitY=0;exitDx=0;exitDy=0;entryX=0.5;entryY=1;entryDx=0;entryDy=0;strokeColor=#B85450;strokeWidth=3;" edge="1" parent="1" source="YkUfV4aC90YQnQ93I6e_-33" target="YkUfV4aC90YQnQ93I6e_-32">
          <mxGeometry relative="1" as="geometry" />
        </mxCell>
        <mxCell id="YkUfV4aC90YQnQ93I6e_-33" value="App" style="rounded=0;whiteSpace=wrap;html=1;perimeterSpacing=0;strokeWidth=2;shadow=1;glass=0;sketch=0;fontStyle=0;strokeColor=#B85450;fillColor=#FFFFFF;" vertex="1" parent="1">
          <mxGeometry x="-3372" y="628" width="157.5" height="60" as="geometry" />
        </mxCell>
        <mxCell id="YkUfV4aC90YQnQ93I6e_-39" value="" style="rounded=0;whiteSpace=wrap;html=1;perimeterSpacing=0;strokeWidth=2;shadow=1;glass=0;sketch=0;fontStyle=1;fillColor=#fad7ac;strokeColor=#b46504;" vertex="1" parent="1">
          <mxGeometry x="-3140" y="323" width="592" height="160" as="geometry" />
        </mxCell>
        <mxCell id="YkUfV4aC90YQnQ93I6e_-42" value="" style="rounded=0;whiteSpace=wrap;html=1;perimeterSpacing=0;strokeWidth=2;shadow=1;glass=0;sketch=0;fontStyle=1;fillColor=#bac8d3;strokeColor=#23445d;" vertex="1" parent="1">
          <mxGeometry x="-3140" y="201" width="594" height="98" as="geometry" />
        </mxCell>
        <mxCell id="YkUfV4aC90YQnQ93I6e_-43" value="Main" style="text;html=1;strokeColor=none;fillColor=none;align=center;verticalAlign=middle;whiteSpace=wrap;rounded=0;shadow=1;glass=0;sketch=0;fontStyle=1" vertex="1" parent="1">
          <mxGeometry x="-3263" y="276" width="60" height="30" as="geometry" />
        </mxCell>
        <mxCell id="YkUfV4aC90YQnQ93I6e_-44" value="Data" style="text;html=1;strokeColor=none;fillColor=none;align=center;verticalAlign=middle;whiteSpace=wrap;rounded=0;shadow=1;glass=0;sketch=0;fontStyle=1" vertex="1" parent="1">
          <mxGeometry x="-2602" y="299" width="60" height="30" as="geometry" />
        </mxCell>
        <mxCell id="YkUfV4aC90YQnQ93I6e_-45" value="Infra" style="text;html=1;strokeColor=none;fillColor=none;align=center;verticalAlign=middle;whiteSpace=wrap;rounded=0;shadow=1;glass=0;sketch=0;fontStyle=1" vertex="1" parent="1">
          <mxGeometry x="-2598" y="176" width="60" height="30" as="geometry" />
        </mxCell>
        <mxCell id="YkUfV4aC90YQnQ93I6e_-47" value="" style="rounded=0;whiteSpace=wrap;html=1;perimeterSpacing=0;strokeWidth=2;shadow=1;glass=0;sketch=0;fontStyle=1;fillColor=#fff2cc;strokeColor=#d6b656;" vertex="1" parent="1">
          <mxGeometry x="-2526" y="259" width="152" height="331" as="geometry" />
        </mxCell>
        <mxCell id="YkUfV4aC90YQnQ93I6e_-49" value="AddAccount" style="rounded=1;whiteSpace=wrap;html=1;perimeterSpacing=0;strokeWidth=2;shadow=0;glass=0;sketch=0;fontStyle=0;strokeColor=#D6B656;dashed=1;" vertex="1" parent="1">
          <mxGeometry x="-2499.5" y="340" width="99" height="50" as="geometry" />
        </mxCell>
        <mxCell id="YkUfV4aC90YQnQ93I6e_-51" value="Domain" style="text;html=1;strokeColor=none;fillColor=none;align=center;verticalAlign=middle;whiteSpace=wrap;rounded=0;shadow=1;glass=0;sketch=0;fontStyle=1" vertex="1" parent="1">
          <mxGeometry x="-2431" y="234" width="60" height="30" as="geometry" />
        </mxCell>
        <mxCell id="YkUfV4aC90YQnQ93I6e_-62" style="edgeStyle=orthogonalEdgeStyle;rounded=0;orthogonalLoop=1;jettySize=auto;html=1;exitX=0.5;exitY=0;exitDx=0;exitDy=0;entryX=0.5;entryY=1;entryDx=0;entryDy=0;strokeColor=#23445D;strokeWidth=3;" edge="1" parent="1" source="YkUfV4aC90YQnQ93I6e_-52" target="YkUfV4aC90YQnQ93I6e_-4">
          <mxGeometry relative="1" as="geometry" />
        </mxCell>
        <mxCell id="YkUfV4aC90YQnQ93I6e_-65" style="edgeStyle=orthogonalEdgeStyle;rounded=0;orthogonalLoop=1;jettySize=auto;html=1;exitX=0.5;exitY=1;exitDx=0;exitDy=0;entryX=0.5;entryY=0;entryDx=0;entryDy=0;strokeColor=#23445D;strokeWidth=3;" edge="1" parent="1" source="YkUfV4aC90YQnQ93I6e_-52" target="YkUfV4aC90YQnQ93I6e_-56">
          <mxGeometry relative="1" as="geometry" />
        </mxCell>
        <mxCell id="YkUfV4aC90YQnQ93I6e_-52" value="BcriyptAdapter" style="rounded=0;whiteSpace=wrap;html=1;perimeterSpacing=0;strokeWidth=2;shadow=1;glass=0;sketch=0;fontStyle=0;strokeColor=#23445D;" vertex="1" parent="1">
          <mxGeometry x="-3105" y="218" width="110" height="60" as="geometry" />
        </mxCell>
        <mxCell id="YkUfV4aC90YQnQ93I6e_-63" style="edgeStyle=orthogonalEdgeStyle;rounded=0;orthogonalLoop=1;jettySize=auto;html=1;exitX=0.5;exitY=1;exitDx=0;exitDy=0;entryX=0.5;entryY=0;entryDx=0;entryDy=0;strokeColor=#23445D;strokeWidth=3;" edge="1" parent="1" source="YkUfV4aC90YQnQ93I6e_-53" target="YkUfV4aC90YQnQ93I6e_-57">
          <mxGeometry relative="1" as="geometry" />
        </mxCell>
        <mxCell id="YkUfV4aC90YQnQ93I6e_-66" style="edgeStyle=orthogonalEdgeStyle;rounded=0;orthogonalLoop=1;jettySize=auto;html=1;exitX=0.5;exitY=0;exitDx=0;exitDy=0;entryX=0;entryY=0.5;entryDx=0;entryDy=0;strokeColor=#23445D;strokeWidth=3;" edge="1" parent="1" source="YkUfV4aC90YQnQ93I6e_-53" target="YkUfV4aC90YQnQ93I6e_-3">
          <mxGeometry relative="1" as="geometry" />
        </mxCell>
        <mxCell id="YkUfV4aC90YQnQ93I6e_-53" value="LoadUserByEmailMongoRepo" style="rounded=0;whiteSpace=wrap;html=1;perimeterSpacing=0;strokeWidth=2;shadow=1;glass=0;sketch=0;fontStyle=0;strokeColor=#23445D;" vertex="1" parent="1">
          <mxGeometry x="-2980" y="218" width="200" height="60" as="geometry" />
        </mxCell>
        <mxCell id="YkUfV4aC90YQnQ93I6e_-64" style="edgeStyle=orthogonalEdgeStyle;rounded=0;orthogonalLoop=1;jettySize=auto;html=1;exitX=0.5;exitY=1;exitDx=0;exitDy=0;entryX=0.5;entryY=0;entryDx=0;entryDy=0;strokeColor=#23445D;strokeWidth=3;" edge="1" parent="1" source="YkUfV4aC90YQnQ93I6e_-54" target="YkUfV4aC90YQnQ93I6e_-58">
          <mxGeometry relative="1" as="geometry" />
        </mxCell>
        <mxCell id="YkUfV4aC90YQnQ93I6e_-67" style="edgeStyle=orthogonalEdgeStyle;rounded=0;orthogonalLoop=1;jettySize=auto;html=1;exitX=0.5;exitY=0;exitDx=0;exitDy=0;entryX=1;entryY=0.5;entryDx=0;entryDy=0;strokeColor=#23445D;strokeWidth=3;" edge="1" parent="1" source="YkUfV4aC90YQnQ93I6e_-54" target="YkUfV4aC90YQnQ93I6e_-3">
          <mxGeometry relative="1" as="geometry" />
        </mxCell>
        <mxCell id="YkUfV4aC90YQnQ93I6e_-54" value="AddUserMongoRepo" style="rounded=0;whiteSpace=wrap;html=1;perimeterSpacing=0;strokeWidth=2;shadow=1;glass=0;sketch=0;fontStyle=0;strokeColor=#23445D;" vertex="1" parent="1">
          <mxGeometry x="-2761" y="218" width="180" height="60" as="geometry" />
        </mxCell>
        <mxCell id="YkUfV4aC90YQnQ93I6e_-68" style="edgeStyle=orthogonalEdgeStyle;rounded=0;orthogonalLoop=1;jettySize=auto;html=1;exitX=0;exitY=0.5;exitDx=0;exitDy=0;entryX=0.5;entryY=1;entryDx=0;entryDy=0;strokeColor=#B46504;strokeWidth=3;" edge="1" parent="1" source="YkUfV4aC90YQnQ93I6e_-55" target="YkUfV4aC90YQnQ93I6e_-56">
          <mxGeometry relative="1" as="geometry" />
        </mxCell>
        <mxCell id="YkUfV4aC90YQnQ93I6e_-71" style="edgeStyle=orthogonalEdgeStyle;rounded=0;orthogonalLoop=1;jettySize=auto;html=1;exitX=1;exitY=0.25;exitDx=0;exitDy=0;entryX=0.5;entryY=1;entryDx=0;entryDy=0;strokeColor=#B46504;strokeWidth=3;" edge="1" parent="1" source="YkUfV4aC90YQnQ93I6e_-55" target="YkUfV4aC90YQnQ93I6e_-58">
          <mxGeometry relative="1" as="geometry" />
        </mxCell>
        <mxCell id="YkUfV4aC90YQnQ93I6e_-77" style="edgeStyle=orthogonalEdgeStyle;rounded=0;orthogonalLoop=1;jettySize=auto;html=1;exitX=1;exitY=0.75;exitDx=0;exitDy=0;entryX=0.25;entryY=1;entryDx=0;entryDy=0;strokeColor=#B46504;strokeWidth=3;" edge="1" parent="1" source="YkUfV4aC90YQnQ93I6e_-55" target="YkUfV4aC90YQnQ93I6e_-49">
          <mxGeometry relative="1" as="geometry" />
        </mxCell>
        <mxCell id="YkUfV4aC90YQnQ93I6e_-55" value="DbAddAccount" style="rounded=0;whiteSpace=wrap;html=1;perimeterSpacing=0;strokeWidth=2;shadow=1;glass=0;sketch=0;fontStyle=0;strokeColor=#B46504;" vertex="1" parent="1">
          <mxGeometry x="-2909" y="419" width="120" height="50" as="geometry" />
        </mxCell>
        <mxCell id="YkUfV4aC90YQnQ93I6e_-56" value="Encrypter" style="rounded=1;whiteSpace=wrap;html=1;perimeterSpacing=0;strokeWidth=2;shadow=0;glass=0;sketch=0;fontStyle=0;strokeColor=#B46504;dashed=1;" vertex="1" parent="1">
          <mxGeometry x="-3110" y="346" width="120" height="40" as="geometry" />
        </mxCell>
        <mxCell id="YkUfV4aC90YQnQ93I6e_-99" style="edgeStyle=orthogonalEdgeStyle;rounded=0;orthogonalLoop=1;jettySize=auto;html=1;exitX=0.5;exitY=1;exitDx=0;exitDy=0;entryX=0.5;entryY=0;entryDx=0;entryDy=0;strokeColor=#B46504;strokeWidth=3;" edge="1" parent="1" source="YkUfV4aC90YQnQ93I6e_-57" target="YkUfV4aC90YQnQ93I6e_-55">
          <mxGeometry relative="1" as="geometry" />
        </mxCell>
        <mxCell id="YkUfV4aC90YQnQ93I6e_-57" value="LoadUserByEmailRepo" style="rounded=1;whiteSpace=wrap;html=1;perimeterSpacing=0;strokeWidth=2;shadow=0;glass=0;sketch=0;fontStyle=0;strokeColor=#B46504;dashed=1;" vertex="1" parent="1">
          <mxGeometry x="-2940" y="345" width="181" height="45" as="geometry" />
        </mxCell>
        <mxCell id="YkUfV4aC90YQnQ93I6e_-58" value="AddUserRepo" style="rounded=1;whiteSpace=wrap;html=1;perimeterSpacing=0;strokeWidth=2;shadow=0;glass=0;sketch=0;fontStyle=0;strokeColor=#B46504;dashed=1;" vertex="1" parent="1">
          <mxGeometry x="-2700" y="345" width="120" height="45" as="geometry" />
        </mxCell>
        <mxCell id="YkUfV4aC90YQnQ93I6e_-75" style="edgeStyle=orthogonalEdgeStyle;rounded=0;orthogonalLoop=1;jettySize=auto;html=1;exitX=1;exitY=0.5;exitDx=0;exitDy=0;entryX=0.75;entryY=1;entryDx=0;entryDy=0;strokeColor=#82B366;strokeWidth=3;" edge="1" parent="1" source="YkUfV4aC90YQnQ93I6e_-1" target="YkUfV4aC90YQnQ93I6e_-49">
          <mxGeometry relative="1" as="geometry" />
        </mxCell>
      </root>
    </mxGraphModel>
  </diagram>
</mxfile>
